<?xml version="1.0" encoding="UTF-8" standalone="no"?>
<svg
   xmlns:dc="http://purl.org/dc/elements/1.1/"
   xmlns:cc="http://creativecommons.org/ns#"
   xmlns:rdf="http://www.w3.org/1999/02/22-rdf-syntax-ns#"
   xmlns:svg="http://www.w3.org/2000/svg"
   xmlns="http://www.w3.org/2000/svg"
   xmlns:sodipodi="http://sodipodi.sourceforge.net/DTD/sodipodi-0.dtd"
   xmlns:inkscape="http://www.inkscape.org/namespaces/inkscape"
   enable-background="new 0 0 512 512"
   height="512px"
   id="Layer_1"
   version="1.1"
   viewBox="0 0 512 512"
   width="512px"
   xml:space="preserve"
   sodipodi:docname="google.svg"
   inkscape:version="1.0 (4035a4fb49, 2020-05-01)"><metadata
     id="metadata885"><rdf:RDF><cc:Work
         rdf:about=""><dc:format>image/svg+xml</dc:format><dc:type
           rdf:resource="http://purl.org/dc/dcmitype/StillImage" /></cc:Work></rdf:RDF></metadata><defs
     id="defs883" /><sodipodi:namedview
     inkscape:document-rotation="0"
     pagecolor="#ffffff"
     bordercolor="#666666"
     borderopacity="1"
     objecttolerance="10"
     gridtolerance="10"
     guidetolerance="10"
     inkscape:pageopacity="0"
     inkscape:pageshadow="2"
     inkscape:window-width="1920"
     inkscape:window-height="1001"
     id="namedview881"
     showgrid="false"
     inkscape:zoom="1.6210938"
     inkscape:cx="256"
     inkscape:cy="256"
     inkscape:window-x="-9"
     inkscape:window-y="-9"
     inkscape:window-maximized="1"
     inkscape:current-layer="Layer_1" /><g
     id="g878"
     style="fill:#000080;fill-opacity:1"><path
       d="M274.897,302.64c-0.382-0.299-0.771-0.587-1.151-0.893c-0.128-0.097-0.247-0.206-0.372-0.306   c-0.269-0.207-0.433-0.333-0.433-0.333h-11.047c-5.287,0.353-10.619,0.94-15.908,1.49c-6.234,0.736-12.434,1.716-18.592,2.727   c-3.077,0.525-6.149,1.045-9.19,1.667c-3.034,0.661-6.048,1.359-9.019,2.113c-5.285,1.396-10.614,3.66-15.651,6.36   c-5.066,2.664-9.761,6.066-13.854,9.9c-4.086,3.853-7.468,8.277-10.024,12.774c-1.283,2.245-2.362,4.516-3.248,6.742   c-0.453,1.111-0.813,2.233-1.152,3.335c-0.364,1.083-0.689,2.156-0.95,3.222c-0.956,4.308-1.508,8.232-1.551,12.268   c-0.083,2.01,0.027,4.057,0.192,6.166l0.034,0.396l0.008,0.1c0.026,0.193-0.008-0.03-0.021-0.121l0.036,0.273l0.154,1.176   l0.233,1.598c0.199,1.124,0.414,2.268,0.685,3.369c1.119,4.414,2.563,8.633,4.695,12.57c2.168,3.896,4.78,7.671,8.086,11.11   c3.314,3.408,7.148,6.669,11.54,9.477c8.759,5.676,19.424,9.825,30.777,12.416c5.688,1.246,11.554,2.158,17.51,2.709   c5.957,0.492,12,0.659,18.076,0.589c1.316-0.007,3.197-0.073,4.551-0.132c1.431-0.051,2.922-0.147,4.417-0.245   c2.631-0.189,5.245-0.482,7.847-0.84c39.806-5.948,61.017-39.602,54.484-63.555C320.31,339.692,283.792,309.699,274.897,302.64z"
       id="path872"
       style="fill:#000080;fill-opacity:1" /><ellipse
       cx="243.886"
       cy="146.024"
       rx="55.642"
       ry="74.71"
       transform="matrix(0.9511 -0.3087 0.3087 0.9511 -33.169 82.4321)"
       id="ellipse874"
       style="fill:#000080;fill-opacity:1" /><path
       d="M430.667,9H82.333C42,9,9,42,9,82.333v348.333C9,471,42,504,82.333,504h348.333C471,504,504,471,504,430.667V82.333   C504,42,471,9,430.667,9z M361.13,367.296c-0.214,1.1-0.407,2.195-0.674,3.277c-0.249,1.078-0.541,2.124-0.907,3.395   c-0.594,1.798-1.332,3.773-2.089,5.52c-6.302,14.05-15.371,25.48-25.958,34.991c-1.972,1.704-4.014,3.303-6.087,4.85   c-6.239,4.891-13.495,9.596-22.01,13.918c-47.001,23.865-106.772,13.524-106.772,13.524l0.003-0.024   c-4.954-0.679-9.952-1.667-14.969-3.037l0.021,0.033c0,0-4.565-0.973-11.414-3.843c-6.475-2.653-12.966-5.977-18.918-10.487   c-15.983-11.276-30.286-25.774-33.542-46.483c-1.838-11.683,0.406-23.63,2.707-31.827c1.445-5.851,3.745-11.459,6.727-16.445   c1.17-1.945,2.44-3.795,3.748-5.582c1.371-1.742,2.771-3.432,4.238-5.007c2.899-3.189,6.041-5.989,9.256-8.5   c3.218-2.511,6.524-4.725,9.876-6.694c3.384-1.929,6.632-3.844,10.026-5.429c6.727-3.236,13.352-6.079,20.16-8.399   c6.446-2.148,13.067-3.697,20.081-4.551c0.153-0.026,0.296-0.056,0.451-0.079c18.557-2.943,39.67-3.186,48.165-3.186   c0.781,0,1.494,0.03,2.208,0.062c-3.392-3.701-15.797-18.309-15.797-33.956c0-8.998,2.434-15.159,4.884-19.085   c-45.274,3.184-86.458-21.337-97.505-61.209c-12.883-46.483,20.067-96.19,73.595-111.026c9.539-2.644,19.085-3.979,28.41-4.162   v-0.044c0,0,18.444-0.405,25.885-1.106c7.442-0.701,38.184-19.522,41.097-21.787c2.912-2.265,5.5-1.456,5.5-1.456   s12.135,9.868,13.105,11.811c0.972,1.941-1.617,5.663-1.617,5.663s-14.724,20.224-16.827,22.813   c-2.104,2.589-0.81,6.341-0.81,6.341l-0.006,0.015c9.626,8.098,17.297,18.177,22.229,29.856l0.013-0.022   c0,0,8.792,18.125,8.821,40.904c0.031,23.055-14.553,41.823-33.483,56.384c-18.929,14.561-25.887,26.858-25.887,34.624   c0,19.207,10.841,19.578,32.033,36.874c0.077,0.064,0.143,0.121,0.221,0.184c4.802,3.583,9.542,7.404,14.196,11.541   c2.653,2.362,5.259,4.852,7.764,7.52c1.771,1.792,3.41,3.75,4.982,5.802c0.106,0.127,0.174,0.214,0.174,0.214h-0.006   c0.655,0.859,1.3,1.729,1.932,2.619c4.317,6.253,8.05,13.363,10.497,21.417c1.85,6.108,2.945,12.707,3.341,19.446l0.003-0.005   c0,0,0.062,0.721,0.085,1.989c0.057,1.483,0.093,2.971,0.081,4.463C362.354,358.383,361.893,362.896,361.13,367.296z"
       id="path876"
       style="fill:#000080;fill-opacity:1" /></g></svg>
